<mxfile host="app.diagrams.net" modified="2024-05-27T14:49:31.843Z" agent="Mozilla/5.0 (Windows NT 10.0; Win64; x64) AppleWebKit/537.36 (KHTML, like Gecko) Chrome/123.0.0.0 Safari/537.36 OPR/109.0.0.0" etag="TO3gT6INdHWnw_RdwOWh" version="24.4.8" type="github">
  <diagram name="Page-1" id="16e2658f-23c8-b752-8be9-c03fbebb8bbe">
    <mxGraphModel dx="961" dy="546" grid="1" gridSize="10" guides="1" tooltips="1" connect="1" arrows="1" fold="1" page="1" pageScale="1" pageWidth="1100" pageHeight="850" background="none" math="0" shadow="0">
      <root>
        <mxCell id="0" />
        <mxCell id="1" parent="0" />
        <mxCell id="1f1E51N81fm3oBkGHURN-3" value="" style="ellipse;whiteSpace=wrap;html=1;aspect=fixed;labelBackgroundColor=none;" vertex="1" parent="1">
          <mxGeometry x="360" y="40" width="80" height="80" as="geometry" />
        </mxCell>
        <mxCell id="1f1E51N81fm3oBkGHURN-4" value="" style="endArrow=none;html=1;rounded=0;labelBackgroundColor=none;fontColor=default;" edge="1" parent="1" source="1f1E51N81fm3oBkGHURN-5">
          <mxGeometry width="50" height="50" relative="1" as="geometry">
            <mxPoint x="399.5" y="190" as="sourcePoint" />
            <mxPoint x="399.5" y="120" as="targetPoint" />
            <Array as="points">
              <mxPoint x="399.5" y="160" />
            </Array>
          </mxGeometry>
        </mxCell>
        <mxCell id="1f1E51N81fm3oBkGHURN-5" value="" style="line;strokeWidth=4;html=1;perimeter=backbonePerimeter;points=[];outlineConnect=0;labelBackgroundColor=none;" vertex="1" parent="1">
          <mxGeometry x="320" y="190" width="160" height="10" as="geometry" />
        </mxCell>
        <mxCell id="1f1E51N81fm3oBkGHURN-6" value="" style="endArrow=none;html=1;rounded=0;labelBackgroundColor=none;fontColor=default;" edge="1" parent="1" target="1f1E51N81fm3oBkGHURN-5">
          <mxGeometry width="50" height="50" relative="1" as="geometry">
            <mxPoint x="360" y="483.05" as="sourcePoint" />
            <mxPoint x="360" y="199.9962365591398" as="targetPoint" />
          </mxGeometry>
        </mxCell>
        <mxCell id="1f1E51N81fm3oBkGHURN-7" value="" style="endArrow=none;html=1;rounded=0;labelBackgroundColor=none;fontColor=default;" edge="1" parent="1" source="1f1E51N81fm3oBkGHURN-8" target="1f1E51N81fm3oBkGHURN-5">
          <mxGeometry width="50" height="50" relative="1" as="geometry">
            <mxPoint x="440" y="489.2800000000001" as="sourcePoint" />
            <mxPoint x="440" y="200.00222222222223" as="targetPoint" />
            <Array as="points">
              <mxPoint x="440" y="296.28" />
            </Array>
          </mxGeometry>
        </mxCell>
        <mxCell id="1f1E51N81fm3oBkGHURN-8" value="" style="line;strokeWidth=4;html=1;perimeter=backbonePerimeter;points=[];outlineConnect=0;labelBackgroundColor=none;" vertex="1" parent="1">
          <mxGeometry x="320" y="480" width="160" height="10" as="geometry" />
        </mxCell>
        <mxCell id="1f1E51N81fm3oBkGHURN-10" value="" style="triangle;whiteSpace=wrap;html=1;rotation=90;labelBackgroundColor=none;" vertex="1" parent="1">
          <mxGeometry x="390" y="520" width="20" height="30" as="geometry" />
        </mxCell>
        <mxCell id="1f1E51N81fm3oBkGHURN-11" value="" style="endArrow=none;html=1;rounded=0;exitX=0;exitY=0.5;exitDx=0;exitDy=0;labelBackgroundColor=none;fontColor=default;" edge="1" parent="1" source="1f1E51N81fm3oBkGHURN-10" target="1f1E51N81fm3oBkGHURN-8">
          <mxGeometry width="50" height="50" relative="1" as="geometry">
            <mxPoint x="400" y="520" as="sourcePoint" />
            <mxPoint x="400.12" y="490" as="targetPoint" />
          </mxGeometry>
        </mxCell>
        <mxCell id="1f1E51N81fm3oBkGHURN-12" value="" style="pointerEvents=1;verticalLabelPosition=bottom;shadow=0;dashed=0;align=center;html=1;verticalAlign=top;shape=mxgraph.electrical.waveforms.sine_wave;labelBackgroundColor=none;" vertex="1" parent="1">
          <mxGeometry x="380" y="61.91" width="40" height="36.18" as="geometry" />
        </mxCell>
        <mxCell id="1f1E51N81fm3oBkGHURN-13" value="" style="ellipse;whiteSpace=wrap;html=1;aspect=fixed;labelBackgroundColor=none;" vertex="1" parent="1">
          <mxGeometry x="510" y="180" width="30" height="30" as="geometry" />
        </mxCell>
        <mxCell id="1f1E51N81fm3oBkGHURN-15" value="" style="ellipse;whiteSpace=wrap;html=1;aspect=fixed;labelBackgroundColor=none;" vertex="1" parent="1">
          <mxGeometry x="500" y="470" width="30" height="30" as="geometry" />
        </mxCell>
      </root>
    </mxGraphModel>
  </diagram>
</mxfile>
